<?xml version="1.0" encoding="UTF-8"?>
<svg id="b" data-name="Layer 2" xmlns="http://www.w3.org/2000/svg" viewBox="0 0 876.52 351.9">
  <defs>
    <style>
      .d {
        fill: #020302;
      }

      .e {
        fill: #cd2d2b;
      }

      .f {
        fill: #070707;
      }
    </style>
  </defs>
  <g id="c" data-name="Layer 1">
    <g>
      <polygon class="d" points="148.63 .48 103.24 139.95 177.14 139.95 27.66 351.9 72.66 194.79 0 194.79 36.62 .48 148.63 .48"/>
      <g>
        <path class="f" d="M273.76,111.44c-.3,1.01-.68,1.82-1.16,2.44-.48.62-1.24,1.1-2.31,1.42s-2.52.53-4.35.62c-1.84.09-4.24.13-7.2.13-2.37,0-4.4-.02-6.09-.04-1.69-.03-3.13-.1-4.31-.22-1.19-.12-2.15-.29-2.89-.53-.74-.24-1.36-.53-1.87-.89-.5-.36-.89-.78-1.16-1.29-.27-.5-.52-1.14-.76-1.91L207.47,9.24c-.71-2.13-1.14-3.82-1.29-5.07-.15-1.24.15-2.18.89-2.8.74-.62,2-1.01,3.78-1.16,1.78-.15,4.27-.22,7.46-.22,2.72,0,4.86.06,6.4.18,1.54.12,2.72.33,3.55.62.83.3,1.41.74,1.73,1.33.32.59.64,1.33.93,2.22l27.99,88.69h.09l27.46-88.24c.24-1.01.53-1.82.89-2.44s.96-1.11,1.82-1.47c.86-.36,2.09-.59,3.69-.71s3.79-.18,6.58-.18,4.84.09,6.35.27,2.55.61,3.11,1.29c.56.68.74,1.64.53,2.89-.21,1.24-.67,2.9-1.38,4.98l-34.3,102.02Z"/>
        <path class="f" d="M407.42,81.05c0,4.09-.56,7.79-1.69,11.11-1.13,3.32-2.68,6.25-4.67,8.8-1.99,2.55-4.35,4.74-7.11,6.58s-5.79,3.35-9.11,4.53c-3.32,1.19-6.86,2.06-10.62,2.62-3.76.56-7.95.84-12.57.84h-30.57c-1.96,0-3.6-.58-4.93-1.73s-2-3.04-2-5.64V7.91c0-2.61.67-4.49,2-5.64s2.98-1.73,4.93-1.73h28.88c7.05,0,13.02.59,17.91,1.78s9,2.98,12.35,5.38c3.35,2.4,5.91,5.44,7.69,9.11,1.78,3.67,2.67,8,2.67,12.97,0,2.79-.36,5.41-1.07,7.87-.71,2.46-1.75,4.7-3.11,6.71-1.36,2.02-3.04,3.79-5.02,5.33-1.99,1.54-4.25,2.79-6.8,3.73,3.26.59,6.27,1.63,9.02,3.11s5.15,3.39,7.2,5.73c2.04,2.34,3.66,5.08,4.84,8.22,1.18,3.14,1.78,6.67,1.78,10.58ZM377.2,32.61c0-2.31-.36-4.38-1.07-6.22-.71-1.83-1.78-3.36-3.2-4.58-1.42-1.21-3.21-2.15-5.38-2.8-2.16-.65-5.05-.98-8.66-.98h-11.82v29.86h13.06c3.38,0,6.07-.4,8.09-1.2,2.01-.8,3.69-1.9,5.02-3.29,1.33-1.39,2.32-3.02,2.98-4.89.65-1.87.98-3.83.98-5.91ZM383.16,81.85c0-2.67-.44-5.05-1.33-7.15-.89-2.1-2.19-3.87-3.91-5.29-1.72-1.42-3.91-2.52-6.58-3.29s-6.13-1.16-10.4-1.16h-13.86v32.7h16.88c3.26,0,6-.34,8.22-1.02,2.22-.68,4.15-1.69,5.78-3.02,1.63-1.33,2.9-2.99,3.82-4.98.92-1.98,1.38-4.25,1.38-6.8Z"/>
        <path class="f" d="M560.18,112.33c0,.59-.16,1.12-.49,1.6-.33.47-.92.86-1.78,1.15-.86.3-2,.53-3.42.71s-3.23.27-5.42.27-3.91-.09-5.33-.27-2.55-.41-3.38-.71c-.83-.29-1.42-.68-1.78-1.15s-.53-1.01-.53-1.6V18.75h-.18l-33.33,93.49c-.24.77-.62,1.41-1.16,1.91-.53.5-1.26.9-2.18,1.2-.92.29-2.09.49-3.51.58s-3.14.13-5.15.13-3.73-.08-5.15-.22c-1.42-.15-2.59-.38-3.51-.71-.92-.32-1.64-.72-2.18-1.2s-.89-1.04-1.07-1.69l-32.17-93.49h-.18v93.58c0,.59-.16,1.12-.49,1.6-.33.47-.93.86-1.82,1.15-.89.3-2.03.53-3.42.71-1.39.18-3.18.27-5.38.27s-3.91-.09-5.33-.27-2.56-.41-3.42-.71c-.86-.29-1.45-.68-1.78-1.15-.33-.47-.49-1.01-.49-1.6V9.86c0-3.02.8-5.33,2.4-6.93s3.73-2.4,6.4-2.4h15.29c2.72,0,5.07.22,7.02.67s3.64,1.19,5.07,2.22c1.42,1.04,2.61,2.4,3.55,4.09.95,1.69,1.78,3.78,2.49,6.26l24.88,68.52h.36l25.77-68.34c.77-2.49,1.61-4.59,2.53-6.31.92-1.72,1.98-3.11,3.2-4.18,1.21-1.07,2.65-1.82,4.31-2.27,1.66-.44,3.58-.67,5.78-.67h15.73c1.6,0,2.98.21,4.13.62,1.16.42,2.1,1.02,2.84,1.82.74.8,1.3,1.78,1.69,2.93.38,1.16.58,2.47.58,3.95v102.46Z"/>
      </g>
      <g>
        <path class="f" d="M273.01,309.69c0,.96-.05,1.79-.16,2.51-.11.72-.29,1.31-.56,1.79-.27.48-.57.82-.92,1.04-.35.21-.73.32-1.15.32h-49.43c-1.22,0-2.38-.41-3.46-1.23-1.09-.82-1.63-2.27-1.63-4.34v-91.85c0-2.07.54-3.51,1.63-4.34,1.09-.82,2.24-1.23,3.46-1.23h48.87c.42,0,.81.11,1.15.32.34.21.62.56.84,1.04.21.48.38,1.07.52,1.79.13.72.2,1.61.2,2.67,0,.96-.07,1.79-.2,2.51-.13.71-.31,1.3-.52,1.75-.21.45-.49.78-.84,1-.35.21-.73.32-1.15.32h-40.27v32.31h34.54c.42,0,.81.12,1.15.36.34.24.64.57.88,1,.24.42.41,1.01.52,1.75.11.74.16,1.62.16,2.63,0,.96-.05,1.78-.16,2.47-.11.69-.28,1.25-.52,1.67-.24.43-.53.73-.88.92-.35.19-.73.28-1.15.28h-34.54v36.85h40.83c.42,0,.81.11,1.15.32.34.21.65.54.92,1,.26.45.45,1.04.56,1.75.11.72.16,1.61.16,2.67Z"/>
        <path class="f" d="M306.92,313.35c0,.43-.11.78-.32,1.07-.21.29-.56.54-1.03.76-.48.21-1.14.37-1.99.48-.85.11-1.94.16-3.26.16s-2.34-.05-3.18-.16c-.85-.11-1.53-.27-2.03-.48-.5-.21-.85-.46-1.03-.76-.19-.29-.28-.65-.28-1.07v-106.33c0-.42.09-.8.28-1.11.19-.32.53-.58,1.03-.8.5-.21,1.18-.37,2.03-.48.85-.11,1.91-.16,3.18-.16s2.41.05,3.26.16c.85.11,1.51.27,1.99.48.48.21.82.48,1.03.8.21.32.32.69.32,1.11v106.33Z"/>
        <path class="f" d="M392.32,274.43c0,2.07-.52,3.54-1.56,4.42s-2.22,1.31-3.56,1.31h-47.17c0,3.98.4,7.56,1.2,10.75.8,3.18,2.13,5.92,4,8.2,1.87,2.28,4.29,4.03,7.28,5.25,2.99,1.22,6.64,1.83,10.96,1.83,3.41,0,6.45-.28,9.12-.83,2.67-.56,4.97-1.18,6.92-1.87,1.95-.69,3.55-1.31,4.8-1.87,1.25-.56,2.2-.83,2.84-.83.37,0,.71.09,1,.28.29.19.52.46.68.84.16.37.28.89.36,1.55s.12,1.47.12,2.43c0,.69-.03,1.29-.08,1.79-.05.51-.12.96-.2,1.35-.08.4-.21.76-.4,1.07-.19.32-.43.62-.72.92s-1.15.77-2.59,1.43c-1.43.67-3.29,1.31-5.57,1.95-2.28.64-4.92,1.21-7.92,1.71-3,.5-6.2.76-9.59.76-5.89,0-11.05-.82-15.48-2.47-4.43-1.64-8.16-4.09-11.18-7.32s-5.31-7.29-6.84-12.18c-1.54-4.88-2.31-10.56-2.31-17.03s.8-11.69,2.39-16.59c1.59-4.91,3.89-9.07,6.88-12.5,3-3.42,6.62-6.05,10.86-7.88,4.24-1.83,8.99-2.75,14.25-2.75,5.62,0,10.41.9,14.37,2.71,3.95,1.8,7.2,4.23,9.75,7.28,2.55,3.05,4.42,6.63,5.61,10.75,1.19,4.11,1.79,8.5,1.79,13.17v2.39ZM379.11,270.53c.16-6.9-1.38-12.31-4.6-16.24-3.23-3.93-8.02-5.89-14.37-5.89-3.26,0-6.11.61-8.57,1.83-2.46,1.22-4.51,2.84-6.17,4.86-1.66,2.02-2.94,4.37-3.84,7.04-.91,2.68-1.41,5.48-1.52,8.4h39.08Z"/>
        <path class="f" d="M471.11,313.27c0,.43-.11.8-.32,1.12-.21.32-.57.58-1.07.79-.51.21-1.21.37-2.11.48-.9.11-2.04.16-3.42.16s-2.62-.04-3.54-.12c-.93-.08-1.71-.21-2.35-.4-.64-.18-1.15-.45-1.55-.79-.4-.34-.76-.76-1.07-1.23l-30.24-39.63v39.71c0,.43-.11.78-.32,1.07-.21.29-.56.54-1.03.76-.48.21-1.14.37-1.99.48-.85.11-1.94.16-3.26.16s-2.34-.05-3.18-.16c-.85-.11-1.53-.27-2.03-.48-.5-.21-.85-.46-1.03-.76-.19-.29-.28-.65-.28-1.07v-106.33c0-.42.09-.8.28-1.11.19-.32.53-.58,1.03-.8.5-.21,1.18-.37,2.03-.48.85-.11,1.91-.16,3.18-.16s2.41.05,3.26.16c.85.11,1.51.27,1.99.48.48.21.82.48,1.03.8.21.32.32.69.32,1.11v64.79l27.06-29.77c.42-.53.88-.97,1.35-1.31.48-.35,1.05-.64,1.71-.88.66-.24,1.45-.4,2.35-.48s1.99-.12,3.26-.12,2.44.04,3.34.12c.9.08,1.63.21,2.19.4s.96.42,1.19.71c.24.29.36.68.36,1.15,0,.64-.17,1.27-.52,1.91-.35.64-.92,1.38-1.71,2.23l-25.95,25.95,29.13,37.8c.69.9,1.18,1.63,1.47,2.19.29.56.44,1.07.44,1.55Z"/>
        <path class="f" d="M522.85,308.1c0,1.54-.11,2.76-.32,3.66-.21.9-.53,1.57-.96,1.99-.43.42-1.06.82-1.91,1.19-.85.37-1.82.68-2.91.92-1.09.24-2.24.44-3.46.6-1.22.16-2.44.24-3.66.24-3.71,0-6.9-.49-9.55-1.47-2.65-.98-4.83-2.47-6.53-4.46-1.7-1.99-2.93-4.51-3.7-7.56-.77-3.05-1.15-6.64-1.15-10.78v-41.87h-10.03c-.8,0-1.43-.42-1.91-1.27-.48-.85-.72-2.23-.72-4.14,0-1.01.07-1.86.2-2.55.13-.69.3-1.26.52-1.71.21-.45.49-.77.84-.96.34-.19.73-.28,1.15-.28h9.95v-17.03c0-.37.09-.72.28-1.04.19-.32.53-.6,1.04-.84.5-.24,1.18-.41,2.03-.52.85-.11,1.91-.16,3.18-.16s2.41.05,3.26.16c.85.11,1.51.28,1.99.52.48.24.82.52,1.04.84.21.32.32.66.32,1.04v17.03h18.38c.42,0,.8.09,1.11.28.32.19.6.51.84.96.24.45.41,1.02.52,1.71.11.69.16,1.54.16,2.55,0,1.91-.24,3.29-.72,4.14-.48.85-1.11,1.27-1.91,1.27h-18.38v39.96c0,4.93.73,8.66,2.19,11.18,1.46,2.52,4.07,3.78,7.84,3.78,1.22,0,2.31-.12,3.26-.36.96-.24,1.8-.49,2.55-.76.74-.26,1.38-.52,1.91-.76.53-.24,1.01-.36,1.43-.36.26,0,.52.07.76.2.24.13.42.38.56.76.13.37.25.88.36,1.51s.16,1.43.16,2.39Z"/>
        <path class="f" d="M582.06,246.42c0,1.17-.03,2.15-.08,2.95-.05.8-.16,1.42-.32,1.87s-.36.79-.6,1.03c-.24.24-.57.36-1,.36s-.94-.12-1.55-.36c-.61-.24-1.3-.48-2.07-.71-.77-.24-1.63-.46-2.59-.68-.96-.21-1.99-.32-3.1-.32-1.33,0-2.63.27-3.9.8-1.27.53-2.61,1.41-4.02,2.63-1.41,1.22-2.88,2.84-4.42,4.85-1.54,2.02-3.24,4.48-5.09,7.4v47.12c0,.43-.11.78-.32,1.07-.21.29-.56.54-1.03.76-.48.21-1.14.37-1.99.48-.85.11-1.94.16-3.26.16s-2.33-.05-3.18-.16c-.85-.11-1.53-.27-2.03-.48-.5-.21-.85-.46-1.03-.76-.19-.29-.28-.65-.28-1.07v-71.63c0-.42.08-.78.24-1.07.16-.29.48-.56.96-.8.48-.24,1.09-.4,1.83-.48s1.72-.12,2.95-.12,2.13.04,2.91.12c.77.08,1.37.24,1.79.48.42.24.73.51.92.8.18.29.28.65.28,1.07v10.43c1.96-2.87,3.81-5.2,5.53-7,1.72-1.8,3.36-3.22,4.9-4.26,1.54-1.04,3.06-1.75,4.58-2.15,1.51-.4,3.04-.6,4.58-.6.69,0,1.47.04,2.35.12.88.08,1.79.23,2.75.44.96.21,1.82.45,2.59.72.77.27,1.31.53,1.63.8s.53.52.64.76c.11.24.2.54.28.92.08.37.13.92.16,1.63.03.72.04,1.69.04,2.9Z"/>
        <path class="f" d="M661.01,276.74c0,5.84-.77,11.21-2.31,16.12-1.54,4.91-3.83,9.14-6.88,12.69-3.05,3.56-6.87,6.33-11.46,8.32-4.59,1.99-9.91,2.98-15.96,2.98s-11.02-.88-15.4-2.63c-4.38-1.75-8.03-4.3-10.94-7.64-2.92-3.34-5.09-7.4-6.53-12.18-1.43-4.78-2.15-10.19-2.15-16.24s.76-11.21,2.27-16.12c1.51-4.91,3.79-9.14,6.84-12.7,3.05-3.55,6.86-6.31,11.42-8.28,4.56-1.96,9.9-2.95,16-2.95s11.02.88,15.4,2.63c4.38,1.75,8.02,4.3,10.94,7.64,2.92,3.34,5.11,7.4,6.57,12.18,1.46,4.78,2.19,10.16,2.19,16.16ZM647.4,277.62c0-3.87-.36-7.53-1.08-10.98-.72-3.45-1.92-6.47-3.57-9.07-1.66-2.6-3.91-4.66-6.75-6.17s-6.37-2.27-10.6-2.27c-3.91,0-7.27.69-10.08,2.07-2.81,1.38-5.13,3.33-6.95,5.85-1.82,2.52-3.17,5.51-4.05,8.96s-1.32,7.22-1.32,11.3.36,7.62,1.08,11.06c.72,3.45,1.93,6.46,3.61,9.03,1.69,2.57,3.95,4.62,6.78,6.13,2.84,1.51,6.37,2.27,10.6,2.27,3.86,0,7.2-.69,10.04-2.07,2.84-1.38,5.17-3.31,6.99-5.81,1.82-2.49,3.16-5.46,4.02-8.91.86-3.45,1.29-7.24,1.29-11.38Z"/>
        <path class="f" d="M795.84,310.49c.42,1.17.65,2.11.68,2.83.03.71-.17,1.26-.6,1.63-.43.37-1.13.61-2.11.72-.98.11-2.3.16-3.94.16s-2.96-.04-3.94-.12c-.98-.08-1.73-.21-2.23-.4-.5-.18-.88-.44-1.11-.76-.24-.32-.47-.72-.68-1.19l-8.83-25.07h-42.82l-8.44,24.75c-.16.48-.37.89-.64,1.23s-.65.64-1.15.88c-.5.24-1.22.41-2.15.52-.93.11-2.14.16-3.62.16s-2.8-.07-3.78-.2c-.98-.13-1.67-.38-2.07-.76-.4-.37-.58-.91-.56-1.63.03-.72.25-1.66.68-2.83l34.54-95.67c.21-.58.49-1.06.84-1.43.34-.37.85-.66,1.51-.88.66-.21,1.51-.36,2.55-.44,1.04-.08,2.35-.12,3.94-.12,1.7,0,3.1.04,4.22.12s2.02.23,2.71.44c.69.21,1.22.52,1.59.92.37.4.66.89.88,1.47l34.54,95.67ZM751.51,226.04h-.08l-17.75,51.34h35.82l-17.99-51.34Z"/>
        <path class="f" d="M868.34,286.45c0,4.83-.89,9.13-2.67,12.89-1.78,3.77-4.25,6.96-7.4,9.59-3.16,2.63-6.87,4.6-11.14,5.93-4.27,1.33-8.87,1.99-13.81,1.99-3.45,0-6.65-.29-9.59-.88-2.95-.58-5.57-1.3-7.88-2.15-2.31-.85-4.25-1.72-5.81-2.63-1.57-.9-2.65-1.67-3.26-2.31-.61-.64-1.06-1.45-1.35-2.43-.29-.98-.44-2.29-.44-3.94,0-1.17.05-2.13.16-2.9.11-.77.26-1.39.48-1.87s.48-.81.8-.99.69-.28,1.11-.28c.74,0,1.79.45,3.14,1.35,1.35.9,3.09,1.88,5.21,2.94,2.12,1.06,4.68,2.06,7.68,2.99,3,.93,6.46,1.39,10.39,1.39,2.97,0,5.69-.4,8.16-1.19,2.47-.8,4.59-1.92,6.37-3.38,1.78-1.46,3.14-3.25,4.1-5.37.96-2.12,1.43-4.54,1.43-7.24,0-2.92-.66-5.41-1.99-7.48-1.33-2.07-3.08-3.89-5.25-5.45-2.18-1.56-4.66-3-7.44-4.3-2.79-1.3-5.64-2.62-8.56-3.98s-5.76-2.85-8.52-4.5c-2.76-1.64-5.23-3.58-7.4-5.81s-3.94-4.84-5.29-7.84c-1.35-3-2.03-6.59-2.03-10.79s.78-8.13,2.35-11.5c1.56-3.37,3.74-6.19,6.53-8.48,2.79-2.28,6.1-4.02,9.95-5.21,3.85-1.19,8-1.79,12.46-1.79,2.28,0,4.58.2,6.88.6,2.31.4,4.48.93,6.53,1.59,2.04.66,3.86,1.41,5.45,2.23s2.64,1.49,3.14,1.99c.5.51.83.9,1,1.2.16.29.29.66.4,1.11.11.45.19,1,.24,1.63.05.64.08,1.46.08,2.47,0,.96-.04,1.8-.12,2.55-.08.74-.2,1.37-.36,1.87-.16.51-.39.88-.68,1.12-.29.24-.62.36-1,.36-.58,0-1.5-.37-2.75-1.11-1.25-.74-2.77-1.58-4.58-2.51-1.8-.93-3.94-1.78-6.41-2.55-2.47-.77-5.24-1.15-8.32-1.15-2.87,0-5.36.39-7.48,1.15-2.12.77-3.87,1.79-5.25,3.06-1.38,1.27-2.42,2.79-3.1,4.54-.69,1.75-1.03,3.61-1.03,5.57,0,2.87.66,5.33,1.99,7.4s3.09,3.9,5.29,5.49c2.2,1.59,4.71,3.05,7.52,4.38,2.81,1.33,5.68,2.67,8.6,4.02,2.92,1.35,5.78,2.84,8.6,4.46,2.81,1.62,5.32,3.53,7.52,5.73,2.2,2.2,3.98,4.8,5.33,7.8,1.35,3,2.03,6.54,2.03,10.63Z"/>
      </g>
      <rect class="e" x="193.54" y="138.39" width="682.98" height="30"/>
    </g>
  </g>
</svg>