<?xml version="1.0" encoding="UTF-8"?>
<svg id="b" data-name="Layer 2" xmlns="http://www.w3.org/2000/svg" viewBox="0 0 446.46 86.4">
  <defs>
    <style>
      .d {
        fill: none;
        stroke: #5f70b1;
        stroke-width: 4px;
      }

      .e {
        fill: #2f3132;
      }

      .f {
        fill: #303232;
      }
    </style>
  </defs>
  <g id="c" data-name="Layer 1">
    <line class="d" y1="41" x2="446.46" y2="41"/>
    <g>
      <path class="f" d="M219.95,45.24c-8.52,4.56-12.84,10.44-12.84,17.76,0,9.6,7.2,15.36,18.6,15.36,6,0,11.52-1.68,16.56-5.16l6.36,5.64c-7.08,5.04-15.36,7.56-24.96,7.56-8.04,0-14.64-2.04-19.68-6-5.04-3.96-7.56-9.24-7.56-15.84,0-11.16,8.04-19.44,19.08-23.28-7.8-7.56-11.52-12.96-11.52-20.28,0-6.24,2.04-11.28,6.12-15.12,4.2-3.96,9.48-5.88,15.84-5.88,12.36,0,20.52,7.8,20.52,18.96,0,8.16-3.72,14.76-11.28,19.8l-4.92-4.56c4.2-3.84,6.24-8.64,6.24-14.28,0-7.32-3.84-11.88-10.92-11.88s-11.16,4.2-11.16,11.88c0,6.24,3.72,11.4,11.4,18.24l26.64,24c3.96-6.72,6.24-14.4,6.84-23.16h8.64c-.84,11.4-3.84,21.12-9,28.92l19.2,17.28h-13.92l-44.28-39.96Z"/>
      <g>
        <path class="e" d="M12.33,34.55V1.46h.74l21.98,25.35V1.46h3.27v33.09h-.74L15.74,9.53v25.03h-3.41Z"/>
        <path class="e" d="M46.38,1.46h18.99v3.27h-15.67v10.32h15.53v3.23h-15.53v13h15.53v3.27h-18.85V1.46Z"/>
        <path class="e" d="M67.86,28.38l2.81-1.66c1.97,3.63,4.25,5.44,6.87,5.44,1.69,0,3.13-.54,4.33-1.61,1.2-1.08,1.8-2.41,1.8-4.01,0-1.26-.51-2.53-1.52-3.83-1.01-1.29-2.78-2.87-5.3-4.75-2.18-1.66-3.68-2.93-4.49-3.8-.81-.88-1.41-1.81-1.8-2.81-.38-1-.58-2-.58-3.02,0-2.15.76-3.97,2.28-5.46s3.43-2.24,5.74-2.24c1.81,0,3.4.45,4.75,1.36,1.35.91,2.66,2.25,3.92,4.03l-2.67,2.07c-.86-1.17-1.75-2.14-2.67-2.9-.92-.77-2.06-1.15-3.41-1.15s-2.4.4-3.25,1.2c-.85.8-1.27,1.8-1.27,3,0,1.26.38,2.34,1.13,3.25.75.91,2.5,2.36,5.23,4.36,2.58,1.94,4.48,3.73,5.69,5.39,1.21,1.66,1.82,3.41,1.82,5.25,0,2.4-.93,4.48-2.79,6.25-1.86,1.77-4.02,2.65-6.48,2.65-4.33,0-7.71-2.33-10.14-7Z"/>
        <path class="e" d="M93.72,1.46h3.36v13.87h16.82V1.46h3.32v33.09h-3.32v-15.99h-16.82v15.99h-3.36V1.46Z"/>
        <path class="e" d="M125.24,1.46h18.99v3.27h-15.67v10.32h15.53v3.23h-15.53v13h15.53v3.27h-18.85V1.46Z"/>
        <path class="e" d="M149.76,1.46h3.32v33.09h-3.32V1.46Z"/>
        <path class="e" d="M159.16,34.55l4.7-33.09h.51l13.46,27.15,13.37-27.15h.51l4.75,33.09h-3.27l-3.23-23.69-11.71,23.69h-.83l-11.84-23.87-3.23,23.87h-3.18Z"/>
      </g>
      <g>
        <path class="f" d="M279.45,50.69h3.64l11.1,26.73,11.29-26.73h3.64l-14.6,34.33h-.7l-14.37-34.33Z"/>
        <path class="f" d="M323.81,49.34l15.63,34.85h-3.59l-5.27-11.43h-14.46l-5.22,11.43h-3.73l15.81-34.85h.84ZM323.39,56.75l-5.74,12.6h11.43l-5.69-12.6Z"/>
        <path class="f" d="M338.55,53.96v-3.26h18.38v3.26h-7.46v30.23h-3.41v-30.23h-7.51Z"/>
        <path class="f" d="M359.82,53.96v-3.26h18.38v3.26h-7.46v30.23h-3.41v-30.23h-7.51Z"/>
        <path class="f" d="M382.73,50.69h19.22v3.31h-15.86v10.45h15.72v3.27h-15.72v13.15h15.72v3.31h-19.08v-33.49Z"/>
        <path class="f" d="M407.82,84.18v-33.49h.75l22.25,25.66v-25.66h3.31v33.49h-.75l-22.11-25.33v25.33h-3.45Z"/>
      </g>
    </g>
  </g>
</svg>