<?xml version="1.0" encoding="UTF-8" standalone="no"?>
<!DOCTYPE svg PUBLIC "-//W3C//DTD SVG 1.1//EN" "http://www.w3.org/Graphics/SVG/1.1/DTD/svg11.dtd">
<svg width="100%" height="100%" viewBox="0 0 1280 1280" version="1.1" xmlns="http://www.w3.org/2000/svg" xmlns:xlink="http://www.w3.org/1999/xlink" xml:space="preserve" xmlns:serif="http://www.serif.com/" style="fill-rule:evenodd;clip-rule:evenodd;stroke-linecap:round;stroke-linejoin:round;stroke-miterlimit:1.5;">
    <g transform="matrix(1,0,0,1,-52.5684,70.5085)">
        <g id="_1" serif:id="1" transform="matrix(1.11799,0,0,1.11799,-4.38787,-295.628)">
            <g transform="matrix(1,0,0,1,38.2786,57.6399)">
                <path d="M139.577,889.929L139.577,784.864L178.995,784.864C187.022,784.864 193.46,785.927 198.309,788.053C203.159,790.179 206.957,793.452 209.704,797.872C212.452,802.291 213.825,806.914 213.825,811.739C213.825,816.231 212.607,820.459 210.17,824.425C207.734,828.39 204.055,831.591 199.133,834.028C205.488,835.891 210.373,839.069 213.79,843.56C217.206,848.051 218.914,853.355 218.914,859.47C218.914,864.391 217.875,868.966 215.796,873.195C213.718,877.423 211.15,880.684 208.092,882.977C205.034,885.271 201.2,887.003 196.589,888.173C191.979,889.344 186.329,889.929 179.64,889.929L139.577,889.929ZM153.481,829.011L176.2,829.011C182.363,829.011 186.783,828.605 189.458,827.793C192.994,826.742 195.658,824.998 197.449,822.561C199.241,820.124 200.137,817.067 200.137,813.388C200.137,809.9 199.301,806.83 197.628,804.178C195.956,801.527 193.567,799.711 190.462,798.732C187.356,797.752 182.029,797.262 174.48,797.262L153.481,797.262L153.481,829.011ZM153.481,877.531L179.64,877.531C184.131,877.531 187.284,877.363 189.1,877.029C192.301,876.455 194.977,875.5 197.127,874.162C199.277,872.824 201.045,870.877 202.43,868.321C203.816,865.765 204.509,862.815 204.509,859.47C204.509,855.552 203.505,852.148 201.499,849.257C199.492,846.367 196.709,844.336 193.149,843.166C189.59,841.995 184.465,841.41 177.776,841.41L153.481,841.41L153.481,877.531Z" style="fill-rule:nonzero;"/>
            </g>
            <g transform="matrix(1,0,0,1,38.2786,57.6399)">
                <path d="M241.188,889.929L281.537,784.864L296.516,784.864L339.517,889.929L323.678,889.929L311.423,858.108L267.49,858.108L255.952,889.929L241.188,889.929ZM271.504,846.785L307.123,846.785L296.158,817.688C292.813,808.849 290.329,801.586 288.704,795.901C287.366,802.637 285.479,809.326 283.042,815.968L271.504,846.785ZM275.876,775.189C275.876,771.701 277.154,768.691 279.71,766.158C282.266,763.626 285.288,762.36 288.776,762.36C292.311,762.36 295.345,763.638 297.878,766.194C300.41,768.75 301.676,771.844 301.676,775.475C301.676,779.154 300.41,782.26 297.878,784.792C295.345,787.324 292.335,788.591 288.847,788.591C285.264,788.591 282.206,787.312 279.674,784.756C277.142,782.2 275.876,779.011 275.876,775.189ZM281.322,775.26C281.322,777.506 282.075,779.393 283.58,780.922C285.085,782.451 286.865,783.215 288.919,783.215C290.974,783.215 292.753,782.451 294.258,780.922C295.763,779.393 296.516,777.554 296.516,775.404C296.516,773.254 295.775,771.414 294.294,769.885C292.813,768.356 291.021,767.592 288.919,767.592C286.865,767.592 285.085,768.344 283.58,769.849C282.075,771.354 281.322,773.158 281.322,775.26Z" style="fill-rule:nonzero;"/>
            </g>
            <g transform="matrix(-0.485053,5.94019e-17,-5.94019e-17,-0.485053,718.064,1335.35)">
                <path d="M565.792,841.684L520.434,852.044L520.434,864.923L562.14,880.042L558.978,997.439C558.978,1012.94 541.998,1013.93 532.363,1005.93C529.062,1003.19 524.807,1001.45 521.651,997.295L531.685,992.708C532.487,990.734 531.487,987.613 527.014,982.282C521.915,976.205 497.073,969.048 495.704,953.86C476.707,969.687 477.286,1004.64 497.854,1021.81C501.474,1020.41 503.696,1015.99 505.022,1009.62C510.066,1015.03 515.635,1020.17 521.666,1025.05C537.375,1037.77 560.663,1040.49 577.094,1058.76C587.611,1043.11 621.677,1035.81 634.668,1023.53C639.533,1018.94 643.995,1014.31 648.579,1009.68C650.154,1015.66 652.548,1019.82 656.034,1021.59C679.106,1005.25 676.307,968.219 659.13,953.7C658.032,957.817 656.07,961.816 653.241,965.557C646.23,974.829 625.487,973.604 622.776,992.921L634.129,997.05C611.352,1016.24 595.823,1017.38 594.45,991.889L591.09,880.455L634.767,867.016L634.767,853.297L588.85,841.537L565.792,841.684Z" style="stroke:black;stroke-width:1.84px;"/>
                <path d="M565.792,841.684C564.319,840.468 565.094,838.92 563.653,837.965C543.803,824.803 550.44,804.702 567.006,795.759L587.837,795.759C610.702,810.145 605.121,828.4 589.831,838.206C588.674,838.948 589.902,840.591 588.85,841.537L565.792,841.684ZM577.3,804.381C584.642,804.381 590.603,810.342 590.603,817.684C590.603,825.027 584.642,830.988 577.3,830.988C569.958,830.988 563.997,825.027 563.997,817.684C563.997,810.342 569.958,804.381 577.3,804.381Z" style="stroke:black;stroke-width:1.84px;"/>
            </g>
            <g transform="matrix(1,0,0,1,38.2786,57.6399)">
                <path d="M496.369,889.929L496.369,797.262L461.754,797.262L461.754,784.864L545.032,784.864L545.032,797.262L510.273,797.262L510.273,889.929L496.369,889.929Z" style="fill-rule:nonzero;"/>
            </g>
            <g transform="matrix(1,0,0,1,38.2786,57.6399)">
                <rect x="576.336" y="784.864" width="13.904" height="105.065" style="fill-rule:nonzero;"/>
            </g>
            <g transform="matrix(1,0,0,1,38.2786,57.6399)">
                <path d="M628.855,889.929L628.855,784.864L642.758,784.864L642.758,877.531L694.502,877.531L694.502,889.929L628.855,889.929Z" style="fill-rule:nonzero;"/>
            </g>
            <g transform="matrix(1,0,0,1,38.2786,57.6399)">
                <path d="M721.005,856.173L734.12,855.027C734.742,860.282 736.187,864.594 738.456,867.963C740.726,871.331 744.25,874.055 749.027,876.133C753.805,878.211 759.18,879.251 765.153,879.251C770.456,879.251 775.138,878.462 779.2,876.885C783.261,875.309 786.283,873.147 788.266,870.4C790.248,867.652 791.24,864.654 791.24,861.405C791.24,858.108 790.284,855.23 788.373,852.769C786.462,850.309 783.309,848.242 778.913,846.57C776.094,845.471 769.859,843.763 760.208,841.446C750.556,839.128 743.796,836.943 739.926,834.888C734.909,832.26 731.17,828.999 728.71,825.105C726.249,821.211 725.019,816.852 725.019,812.026C725.019,806.723 726.524,801.766 729.534,797.155C732.544,792.544 736.939,789.044 742.721,786.656C748.502,784.267 754.928,783.072 761.999,783.072C769.787,783.072 776.655,784.326 782.604,786.835C788.552,789.343 793.127,793.034 796.328,797.907C799.529,802.781 801.249,808.299 801.488,814.463L788.158,815.466C787.441,808.825 785.017,803.808 780.884,800.416C776.751,797.023 770.647,795.327 762.573,795.327C754.164,795.327 748.036,796.868 744.19,799.95C740.344,803.032 738.421,806.746 738.421,811.094C738.421,814.869 739.782,817.974 742.506,820.411C745.181,822.848 752.169,825.344 763.468,827.9C774.768,830.457 782.52,832.69 786.725,834.601C792.84,837.42 797.355,840.992 800.27,845.316C803.184,849.64 804.642,854.621 804.642,860.259C804.642,865.849 803.041,871.116 799.84,876.061C796.639,881.006 792.04,884.853 786.044,887.6C780.048,890.347 773.299,891.721 765.798,891.721C756.29,891.721 748.323,890.335 741.896,887.564C735.47,884.793 730.43,880.624 726.774,875.058C723.119,869.492 721.196,863.197 721.005,856.173Z" style="fill-rule:nonzero;"/>
            </g>
            <g transform="matrix(1,0,0,1,38.2786,57.6399)">
                <path d="M867.91,889.929L867.91,845.423L827.418,784.864L844.331,784.864L865.043,816.541C868.866,822.466 872.425,828.39 875.722,834.315C878.875,828.82 882.698,822.633 887.189,815.753L907.543,784.864L923.74,784.864L881.814,845.423L881.814,889.929L867.91,889.929Z" style="fill-rule:nonzero;"/>
            </g>
            <g transform="matrix(1,0,0,1,571.951,-193.473)">
                <g transform="matrix(1,0,0,1,-34.9829,-1.20887)">
                    <g transform="matrix(1,0,0,1,-100.8,117.402)">
                        <path d="M536.167,1025.44L536.167,920.376L550.429,920.376L605.613,1002.87L605.613,920.376L618.943,920.376L618.943,1025.44L604.681,1025.44L549.497,942.88L549.497,1025.44L536.167,1025.44ZM612.278,924.335C614.905,924.335 617.038,926.468 617.038,929.095C617.038,931.722 614.905,933.854 612.278,933.854C609.651,933.854 607.518,931.722 607.518,929.095C607.518,926.468 609.651,924.335 612.278,924.335Z"/>
                    </g>
                    <g transform="matrix(1,0,0,1,-100.8,117.402)">
                        <path d="M612.278,924.335L612.278,933.854" style="fill:none;stroke:black;stroke-width:1.12px;"/>
                    </g>
                    <g transform="matrix(1.31105e-08,1,-1,1.31105e-08,1440.57,434.218)">
                        <path d="M612.278,924.335L612.278,933.854" style="fill:none;stroke:black;stroke-width:1.12px;"/>
                    </g>
                    <g transform="matrix(1,0,0,1,-95.6171,131.157)">
                        <path d="M598.586,902.584L598.581,891.059L593.59,891.059L605.613,882.51L607.095,880.052L608.564,882.51L620.6,891.059L615.682,891.059L615.682,902.584L620.527,902.584L616.49,906.621L598.361,906.621L594.324,902.584L598.586,902.584ZM601.063,890.003L612.976,890.003L612.976,902.967L601.026,902.967L601.063,890.003Z" style="stroke:black;stroke-width:1.12px;"/>
                    </g>
                </g>
                <g transform="matrix(0.496243,0,0,1.45252,240.044,-451.78)">
                    <path d="M475.5,1005C475.66,1005 477.5,1005 477.5,1005L476.5,995C476.5,995 475.34,1005 475.5,1005Z"/>
                </g>
                <g transform="matrix(0.421636,0.261687,-0.790101,1.27303,1074.82,-391.983)">
                    <path d="M475.5,1005C475.66,1005 477.5,1005 477.5,1005L476.5,995C476.5,995 475.34,1005 475.5,1005Z"/>
                </g>
                <g transform="matrix(0.270797,0.415844,-1.03605,0.674671,1397.19,138.552)">
                    <path d="M475.5,1005C475.66,1005 477.5,1005 477.5,1005L476.5,995C476.5,995 475.34,1005 475.5,1005Z"/>
                </g>
                <g transform="matrix(1.44316e-17,0.496243,-0.568561,-1.09393e-16,1062.72,784.044)">
                    <path d="M475.5,1005C475.66,1005 477.5,1005 477.5,1005L476.5,995C476.5,995 475.34,1005 475.5,1005Z"/>
                </g>
                <g transform="matrix(-2.32782e-18,0.496243,0.999898,-8.29814e-17,-543.899,784.044)">
                    <path d="M475.5,1005C475.66,1005 477.5,1005 477.5,1005L476.5,995C476.5,995 475.34,1005 475.5,1005Z"/>
                </g>
                <g transform="matrix(-0.123055,0.480744,0.749924,0.191956,-229.163,595.101)">
                    <path d="M475.5,1005C475.66,1005 477.5,1005 477.5,1005L476.5,995C476.5,995 475.34,1005 475.5,1005Z"/>
                </g>
                <g transform="matrix(0.123055,0.480744,-0.849914,0.21755,1282.65,569.402)">
                    <path d="M475.5,1005C475.66,1005 477.5,1005 477.5,1005L476.5,995C476.5,995 475.34,1005 475.5,1005Z"/>
                </g>
                <g transform="matrix(-0.270797,0.415844,1.27259,0.828706,-681.19,-15.7728)">
                    <path d="M475.5,1005C475.66,1005 477.5,1005 477.5,1005L476.5,995C476.5,995 475.34,1005 475.5,1005Z"/>
                </g>
                <g transform="matrix(-0.421636,0.261687,0.711974,1.14715,-42.9092,-264.842)">
                    <path d="M475.5,1005C475.66,1005 477.5,1005 477.5,1005L476.5,995C476.5,995 475.34,1005 475.5,1005Z"/>
                </g>
            </g>
        </g>
        <g transform="matrix(1.14599,0,0,1.14599,76.0203,-319.064)">
            <path d="M513.578,615.524C481.224,635.46 457.341,657.304 467.275,719.528C475.575,686.064 494.518,701.164 533.971,730.004C498.974,696.395 504.07,658.034 513.578,615.524Z" style="stroke:black;stroke-width:0.87px;"/>
            <path d="M546.003,732.871C502.476,692.849 502.982,630.716 540.097,604.109C517.179,672.028 576.504,704.545 588,760.914C573.955,744.745 555.767,732.019 546.003,732.871Z" style="stroke:black;stroke-width:0.87px;"/>
            <path d="M439.696,718.947C500.865,720.19 553.268,732.052 588,767.507C551.93,764.571 515.599,757.75 476.006,763.132C469.112,743.195 457.09,728.385 439.696,718.947Z" style="stroke:black;stroke-width:0.87px;"/>
            <path d="M444.508,743.227C443.348,807.251 559.554,778.444 615.561,778.006C569.918,755.312 470.903,795.813 444.508,743.227Z" style="stroke:black;stroke-width:0.87px;"/>
            <g transform="matrix(1.24788,0,0,1,-134.649,20.5614)">
                <path d="M460.257,746.945C484.311,801.539 570.882,776.07 622.967,761.755C625.281,761.119 626.804,760.402 625.072,760.385C577.529,759.935 484.603,785.465 460.257,746.945Z" style="stroke:black;stroke-width:0.77px;"/>
            </g>
        </g>
    </g>
</svg>
